<?xml version="1.0" standalone="no"?>
<!DOCTYPE svg PUBLIC "-//W3C//DTD SVG 20010904//EN"
 "http://www.w3.org/TR/2001/REC-SVG-20010904/DTD/svg10.dtd">
<svg version="1.0" xmlns="http://www.w3.org/2000/svg"
 width="500.000000pt" height="500.000000pt" viewBox="0 0 500.000000 500.000000"
 preserveAspectRatio="xMidYMid meet">

<g transform="translate(0.000000,500.000000) scale(0.100000,-0.100000)"
fill="#000000" stroke="none">
<path d="M2345 4494 c-365 -38 -657 -142 -941 -333 -364 -244 -629 -595 -768
-1016 -156 -471 -120 -996 99 -1453 92 -192 202 -348 354 -505 157 -161 298
-270 478 -368 62 -34 77 -49 48 -49 -19 0 -40 -43 -32 -64 3 -8 16 -16 29 -19
l23 -4 -22 -2 c-30 -1 -29 -11 7 -56 27 -34 50 -90 50 -122 0 -7 12 -13 28
-13 24 0 27 4 27 33 -1 17 -7 43 -15 57 -8 14 -17 46 -20 72 l-6 48 80 0 c66
-1 77 -3 61 -12 -45 -26 -45 -48 -1 -122 19 -32 42 -79 52 -107 15 -41 22 -49
43 -50 17 -1 20 -3 9 -6 -20 -5 -22 -12 -9 -32 6 -9 15 -11 27 -6 11 4 34 7
52 6 18 -2 45 5 60 15 l27 17 -20 -23 -20 -23 22 12 c13 6 27 20 33 31 20 38
-53 64 -114 40 -20 -7 -26 -6 -26 4 0 7 -11 23 -25 36 -25 24 -45 75 -45 118
0 20 4 22 63 22 34 -1 89 -7 122 -15 33 -8 98 -15 145 -15 59 0 80 -3 70 -10
-19 -12 -154 -13 -200 -1 -107 27 -116 20 -30 -24 88 -44 257 -56 362 -24 116
35 182 47 205 38 14 -5 28 -7 32 -5 4 3 18 -20 31 -52 26 -62 55 -94 112 -123
50 -25 182 -26 255 0 29 10 50 14 48 10 -3 -4 6 -10 19 -13 35 -9 62 -52 99
-158 l32 -93 35 2 c26 1 30 0 15 -6 -19 -8 -19 -8 4 -20 18 -10 29 -10 51 -1
29 12 46 46 26 54 -6 2 -3 5 7 5 27 1 22 -44 -8 -67 -14 -11 -25 -22 -25 -24
0 -10 109 -8 135 2 15 6 30 8 33 5 12 -12 -20 -29 -66 -37 -46 -7 -45 -7 10
-3 32 2 62 6 68 10 32 20 -12 100 -72 131 -28 15 -34 14 -69 -2 -38 -16 -40
-16 -60 2 -21 19 -79 112 -79 127 0 5 4 6 9 2 9 -5 -43 120 -68 165 -4 8 -32
20 -62 27 -61 14 -78 31 -81 85 -1 21 -2 45 -2 54 -1 11 21 24 72 41 91 31
111 25 148 -49 31 -61 38 -68 77 -68 33 0 58 -12 110 -52 44 -35 47 -25 9 28
-38 52 -51 62 -98 73 l-39 9 44 1 c38 1 48 -4 80 -37 20 -20 43 -47 51 -60 23
-34 107 -42 152 -13 l33 21 -72 0 c-90 0 -112 10 -146 66 -14 24 -41 53 -59
64 -18 11 -27 20 -21 20 18 0 91 -68 98 -91 14 -43 104 -62 188 -38 72 20 101
112 73 233 -9 37 -23 79 -32 94 -8 15 -12 18 -9 7 14 -41 17 -142 6 -163 -19
-37 -67 -55 -130 -50 -49 4 -59 9 -81 38 -14 19 -41 49 -60 68 -19 19 -30 33
-25 31 6 -3 41 -19 79 -37 38 -18 71 -30 74 -27 7 7 -46 73 -69 85 -18 10 -10
17 73 72 453 296 765 785 853 1338 22 139 23 416 0 565 -87 590 -424 1098
-930 1402 -129 78 -157 91 -295 146 -128 50 -265 88 -410 112 -93 15 -376 27
-455 19z m485 -53 c611 -109 1125 -496 1401 -1054 327 -661 241 -1468 -217
-2040 -138 -172 -320 -337 -483 -437 -49 -31 -61 -34 -140 -35 -81 -1 -91 -3
-180 -48 -107 -53 -130 -56 -173 -25 l-30 21 11 -21 c12 -23 64 -65 96 -77 17
-6 15 -9 -19 -21 -45 -16 -49 -14 -66 39 -6 21 -23 51 -37 67 -20 25 -28 28
-44 19 -13 -7 -31 -7 -55 0 l-37 10 22 -23 c11 -12 21 -25 21 -29 0 -14 -46
-6 -77 13 -18 11 -33 16 -33 10 0 -5 5 -12 10 -15 6 -3 17 -20 26 -37 l16 -31
-31 6 c-19 4 -30 3 -26 -2 3 -5 1 -13 -5 -16 -12 -8 -48 14 -81 47 -20 21 -21
21 -14 3 23 -63 27 -77 21 -82 -3 -4 -20 3 -36 16 -24 17 -30 19 -30 6 0 -27
-31 -16 -83 30 -63 55 -88 63 -125 40 l-27 -18 19 21 c29 33 67 28 124 -18 28
-21 53 -44 57 -50 15 -24 27 -8 22 30 -3 22 -4 40 -2 40 1 0 15 -18 29 -41 34
-51 43 -44 22 17 -9 26 -16 49 -16 52 0 2 23 -15 50 -38 28 -24 53 -41 55 -38
3 2 -7 21 -20 41 -36 53 -31 55 20 8 63 -58 69 -55 22 12 -25 36 -16 44 27 23
50 -24 63 -20 35 10 l-24 26 55 -7 c48 -7 53 -6 42 8 -11 13 -4 17 60 27 112
18 119 20 113 30 -4 6 2 13 12 17 10 3 59 25 108 48 496 230 853 701 946 1246
18 107 21 150 16 314 -6 217 -23 317 -86 503 -159 478 -529 859 -1005 1036
-291 109 -623 135 -922 72 -666 -140 -1169 -644 -1316 -1320 -19 -86 -22 -132
-23 -316 0 -238 16 -348 76 -533 146 -447 496 -838 914 -1016 44 -19 82 -36
84 -37 5 -4 -41 -98 -53 -106 -7 -5 -4 -8 6 -8 11 0 23 13 31 33 l14 32 -4
-50 c-4 -55 12 -98 40 -103 14 -3 17 5 19 45 l1 48 4 -42 c5 -49 10 -51 87
-26 28 9 57 18 64 20 10 2 10 8 -2 25 -9 12 -16 34 -16 48 0 20 5 14 24 -27
13 -28 33 -53 43 -56 10 -3 -4 -5 -32 -6 -27 -1 -63 -8 -80 -17 -40 -21 -121
-35 -152 -28 -14 4 -20 10 -14 13 6 4 8 22 4 44 -4 28 -10 36 -22 33 -9 -2
-34 -7 -56 -10 l-40 -6 30 14 c37 18 16 20 -57 5 -52 -11 -57 -10 -119 21
-227 115 -472 315 -631 516 -167 211 -298 475 -361 729 -46 184 -52 239 -52
485 0 206 3 249 23 350 110 542 430 1001 902 1293 215 132 510 233 780 266
123 16 419 6 550 -18z m-32 -311 c159 -29 286 -71 437 -146 465 -229 793 -660
897 -1177 19 -95 22 -144 22 -322 0 -179 -3 -225 -22 -311 -56 -257 -176 -515
-331 -709 -106 -133 -285 -290 -443 -388 l-76 -48 -68 26 c-38 15 -78 31 -89
36 -17 8 -16 9 5 4 61 -14 197 -17 218 -6 34 18 27 28 -24 36 -26 3 -88 19
-138 35 l-91 28 50 6 c154 21 338 66 323 81 -2 3 -76 -2 -164 -10 -87 -8 -177
-15 -199 -15 -39 0 -37 2 65 56 118 63 256 153 287 187 11 12 29 35 39 51 15
23 -2 15 -94 -47 -61 -42 -142 -92 -179 -111 -64 -32 -172 -70 -180 -63 -1 2
36 37 84 78 47 41 122 115 167 164 l80 90 79 13 c101 16 176 52 225 107 46 52
62 101 62 186 -1 135 -86 227 -245 264 l-50 12 35 18 c110 56 186 143 216 249
24 87 16 223 -18 296 -68 147 -201 245 -395 291 -81 19 -105 21 -298 14 -115
-4 -230 -11 -255 -17 -118 -28 -235 -117 -303 -231 l-35 -57 -45 62 c-55 78
-128 147 -277 265 -141 112 -234 207 -261 269 -27 59 -23 137 9 182 48 67 174
95 255 57 55 -26 116 -92 148 -160 16 -33 29 -53 30 -45 1 8 4 58 8 111 l6 96
-22 -10 c-23 -10 -61 -5 -182 28 -95 25 -186 5 -256 -57 -52 -45 -75 -99 -75
-179 0 -125 45 -186 335 -456 l110 -103 -50 19 c-69 26 -206 80 -230 90 -112
49 -332 81 -427 63 -83 -15 -180 -64 -216 -108 -82 -99 -62 -274 38 -340 41
-27 140 -45 140 -25 0 6 -15 11 -34 11 -104 0 -175 83 -176 203 0 99 47 163
155 214 55 26 70 28 175 28 81 0 137 -6 190 -19 l75 -19 -61 -13 c-131 -26
-238 -105 -287 -212 -19 -40 -22 -65 -22 -167 0 -115 1 -123 32 -185 18 -36
53 -88 78 -117 31 -36 45 -60 45 -80 0 -48 29 -118 65 -161 76 -88 193 -128
345 -118 154 10 266 53 365 140 l49 43 44 -59 c78 -103 196 -185 321 -222 64
-19 137 -21 147 -4 4 7 3 8 -4 4 -19 -11 -144 13 -197 39 -74 36 -148 106
-199 188 -72 116 -75 176 -6 114 56 -52 118 -84 190 -101 80 -19 138 -20 213
-2 l57 13 0 -164 c0 -172 -9 -220 -47 -242 -14 -8 -2 -10 55 -11 39 0 72 -3
72 -6 0 -12 -167 -258 -199 -294 l-31 -35 24 38 c27 42 80 167 90 212 6 28
-11 1 -110 -181 -71 -129 -165 -210 -321 -274 -113 -47 -173 -94 -173 -136 0
-16 -4 -23 -11 -18 -16 9 -3 64 22 90 18 20 20 30 14 71 -7 52 -55 151 -86
179 -16 14 -24 15 -45 6 -39 -19 -54 -15 -90 24 -28 31 -41 38 -84 42 -31 3
-54 10 -57 18 -3 8 -16 14 -28 14 -29 0 -88 -48 -81 -66 9 -23 -35 -122 -66
-153 -40 -39 -31 -67 24 -81 34 -10 43 -9 59 6 11 10 34 23 52 30 97 37 163
68 175 82 6 9 12 11 12 4 0 -19 -38 -48 -80 -61 -30 -9 -40 -17 -45 -41 -3
-16 -22 -48 -41 -72 -19 -24 -37 -60 -41 -81 -5 -36 -8 -39 -34 -33 -55 11
-225 98 -335 171 -207 138 -424 372 -534 577 -136 252 -196 472 -207 763 -21
567 253 1093 743 1427 203 138 465 233 737 268 110 14 346 4 475 -20z m455
-1055 c161 -42 271 -144 318 -296 47 -151 3 -355 -99 -463 -54 -57 -103 -76
-194 -76 l-78 0 29 48 c55 89 75 165 76 292 1 98 4 121 23 157 27 51 28 95 3
148 -34 73 -100 115 -181 115 -25 0 -57 12 -96 35 -32 19 -65 35 -73 35 -14 0
-14 1 -1 10 23 15 209 12 273 -5z m-30 -109 c89 -38 134 -150 88 -219 l-18
-28 -18 48 c-23 63 -69 140 -108 181 l-31 32 27 0 c15 0 42 -6 60 -14z m-1174
-76 c143 -59 156 -67 187 -109 77 -105 97 -245 54 -383 -26 -85 -95 -164 -178
-205 -53 -26 -66 -28 -177 -28 -139 0 -201 19 -274 82 -40 34 -43 39 -38 75
12 93 96 204 190 251 139 71 303 47 377 -55 33 -45 41 -98 15 -98 -9 0 -18 6
-21 14 -9 24 -60 36 -94 24 -60 -20 -70 -99 -19 -142 77 -65 190 8 176 114
-13 98 -101 182 -210 200 -182 29 -370 -87 -421 -261 -7 -22 -16 -41 -21 -42
-17 -4 -58 98 -68 170 -27 182 62 361 215 437 77 38 122 32 307 -44z m338
-703 l27 -60 -54 -50 c-106 -97 -253 -145 -415 -134 -183 12 -300 102 -328
254 l-6 32 67 -34 c213 -108 474 -72 627 85 l40 41 8 -37 c4 -21 19 -64 34
-97z m88 33 c3 -5 1 -10 -4 -10 -6 0 -11 5 -11 10 0 6 2 10 4 10 3 0 8 -4 11
-10z m956 -16 c39 -12 67 -29 100 -63 54 -53 69 -95 69 -192 0 -120 -46 -204
-134 -245 -70 -33 -80 -31 -56 9 31 50 24 55 -16 9 l-36 -42 -108 0 -109 0 36
78 c36 78 83 207 83 226 0 6 -30 -45 -68 -114 l-67 -124 -3 204 -2 204 32 33
c32 33 32 33 128 33 59 0 117 -6 151 -16z m-101 -553 c0 -16 -203 -193 -280
-243 -41 -27 -83 -57 -94 -66 -10 -9 3 16 29 57 26 41 70 117 97 168 l50 93
99 0 c54 0 99 -4 99 -9z m-1315 -291 c-3 -5 -17 -10 -30 -10 -13 0 -27 5 -30
10 -4 6 8 10 30 10 22 0 34 -4 30 -10z m65 -14 c0 -16 -26 -39 -46 -42 -15 -2
-11 10 14 39 18 20 32 22 32 3z m10 -36 c0 -5 -10 -15 -22 -21 -23 -12 -23
-12 -4 10 21 23 26 26 26 11z m-135 -70 c-9 -16 -18 -30 -21 -30 -2 0 2 14 11
30 9 17 18 30 21 30 2 0 -2 -13 -11 -30z m1064 4 c22 -20 0 -60 -37 -69 -24
-5 -28 -10 -25 -29 6 -29 -19 -49 -63 -50 -30 -1 -34 -4 -34 -29 0 -30 -28
-47 -76 -47 -21 0 -23 -3 -14 -19 18 -35 -14 -54 -81 -49 -53 4 -56 3 -45 -14
9 -15 8 -21 -4 -29 -17 -11 -102 -5 -128 10 -12 7 3 8 51 4 70 -6 78 -2 50 29
-15 17 -13 18 55 18 82 0 98 12 58 47 l-27 23 60 0 c76 0 104 20 72 54 l-20
21 44 -3 c44 -4 85 10 85 29 0 6 -10 19 -22 30 l-23 18 46 1 c42 0 69 13 69
32 0 5 -15 17 -32 29 l-33 20 30 -7 c17 -3 36 -13 44 -20z m-791 -154 l-1 -75
-7 85 c-4 47 -10 94 -14 105 -3 11 0 7 8 -10 10 -19 15 -57 14 -105z m604 114
c-25 -45 -102 -106 -207 -164 -121 -67 -181 -119 -170 -149 4 -11 3 -13 -5 -5
-16 16 3 59 42 95 18 17 82 55 141 86 73 37 124 71 155 104 51 52 57 57 44 33z
m-917 -44 c3 -5 1 -10 -5 -10 -6 0 -8 -5 -4 -12 4 -7 3 -8 -4 -4 -7 4 -12 1
-12 -6 0 -10 -3 -9 -10 2 -5 9 -5 19 2 27 13 16 25 17 33 3z m1275 -143 l65 0
-43 -19 -42 -19 -68 26 c-63 24 -64 25 -22 19 24 -4 74 -7 110 -7z m-1055 -66
c-28 -10 -60 -23 -72 -29 -30 -16 -52 -15 -28 1 32 22 98 46 125 46 17 0 9 -5
-25 -18z m895 5 c46 -9 59 -14 45 -19 -11 -4 -47 2 -80 12 -70 22 -57 25 35 7z
m-125 -56 c17 0 17 -2 5 -10 -21 -14 -33 -12 -56 6 -18 15 -18 15 6 10 14 -3
34 -6 45 -6z m437 -71 c-30 -5 -61 -14 -70 -20 -14 -8 -13 -9 5 -4 12 3 24 1
28 -5 3 -6 -3 -10 -15 -10 -11 0 -42 -11 -68 -25 -26 -14 -53 -25 -61 -25 -8
0 8 12 37 26 29 14 50 29 47 34 -8 13 67 39 110 38 38 0 37 -1 -13 -9z m-978
-83 c-8 -11 -14 -42 -14 -68 0 -26 -5 -50 -11 -53 -17 -11 -18 -3 -8 50 15 83
18 92 33 92 13 0 13 -3 0 -21z m-249 -57 c19 -5 4 -6 -40 -2 -38 3 -72 7 -74
9 -8 7 84 2 114 -7z m695 -220 c40 -27 58 -34 145 -56 l30 -7 -34 -4 c-81 -9
-185 47 -221 117 -29 59 -24 71 9 21 16 -23 48 -56 71 -71z"/>
<path d="M2707 3843 c-3 -5 4 -36 15 -71 l19 -63 51 3 52 3 13 50 c22 87 24
85 -66 85 -44 0 -82 -3 -84 -7z m153 -12 c0 -5 -5 -32 -12 -60 l-11 -51 -44 0
c-47 0 -54 8 -68 84 l-7 36 71 0 c39 0 71 -4 71 -9z"/>
<path d="M2630 3815 c-25 -13 -56 -33 -70 -44 l-25 -20 40 -43 40 -43 -41 38
-40 37 -21 -22 c-24 -27 -63 -101 -63 -121 0 -8 25 -19 65 -29 l65 -15 25 45
c19 34 22 48 14 58 -8 10 -8 14 -1 14 6 0 13 -4 17 -10 3 -5 21 2 41 15 19 13
39 25 44 27 11 3 -27 138 -38 138 -4 -1 -27 -12 -52 -25z m71 -50 l16 -54 -40
-21 -40 -21 -38 37 c-22 21 -39 41 -39 45 0 11 92 69 109 69 11 0 21 -18 32
-55z m-126 -82 l44 -37 -21 -35 c-12 -20 -23 -38 -24 -39 -6 -9 -114 22 -114
32 0 13 58 116 66 116 3 0 25 -17 49 -37z"/>
<path d="M2885 3828 c-2 -7 -11 -39 -18 -70 l-15 -57 27 -10 c14 -6 34 -16 43
-23 15 -11 25 -6 70 37 l52 50 -47 -54 -46 -55 21 -35 c12 -20 24 -39 27 -43
4 -4 28 -1 55 7 27 8 56 15 65 14 9 0 -14 -9 -50 -21 l-65 -20 0 -49 c1 -54
-5 -49 100 -75 36 -8 46 6 46 66 0 148 -86 278 -223 335 -29 12 -38 13 -42 3z"/>
<path d="M2440 3553 c0 -14 2 -15 9 -5 6 11 18 11 62 -1 l54 -13 0 -44 c0 -43
0 -43 -50 -61 -27 -10 -45 -18 -39 -18 6 -1 32 6 58 15 l47 16 -3 52 -3 51
-50 12 c-72 16 -85 16 -85 -4z"/>
<path d="M2432 3500 c0 -19 2 -27 5 -17 2 9 2 25 0 35 -3 9 -5 1 -5 -18z"/>
<path d="M2440 3430 c0 -16 4 -30 8 -30 5 0 7 14 4 30 -2 17 -6 30 -8 30 -2 0
-4 -13 -4 -30z"/>
<path d="M2979 3393 l-22 -45 44 -44 c24 -24 48 -44 54 -44 21 0 92 134 76
144 -4 3 -35 11 -69 19 l-62 14 -21 -44z"/>
<path d="M2510 3276 c0 -2 8 -10 18 -17 15 -13 16 -12 3 4 -13 16 -21 21 -21
13z"/>
<path d="M2788 3273 c6 -2 18 -2 25 0 6 3 1 5 -13 5 -14 0 -19 -2 -12 -5z"/>
<path d="M2696 3163 c-6 -14 -5 -15 5 -6 7 7 10 15 7 18 -3 3 -9 -2 -12 -12z"/>
<path d="M2818 3143 c6 -2 18 -2 25 0 6 3 1 5 -13 5 -14 0 -19 -2 -12 -5z"/>
<path d="M2395 2003 c89 -217 112 -354 80 -476 -8 -32 -15 -62 -15 -66 0 -16
50 -42 93 -49 l42 -8 -41 -20 -42 -20 49 -40 c26 -21 47 -43 45 -49 -1 -5 -18
-12 -37 -15 l-34 -6 33 -8 c17 -4 32 -11 32 -16 0 -5 -17 -22 -37 -39 -20 -17
-35 -33 -32 -35 10 -10 127 56 177 99 40 36 52 53 52 76 0 41 -14 36 -27 -8
-9 -34 -11 -29 -12 52 -1 88 -15 202 -26 213 -11 11 -16 -9 -23 -94 l-7 -89
-6 110 c-7 128 -17 195 -29 195 -5 0 -10 -26 -12 -57 l-3 -58 -8 40 c-17 82
-48 171 -68 195 l-21 25 6 -45 c4 -25 8 -76 11 -115 l4 -70 -10 75 c-14 100
-41 179 -90 256 -39 62 -59 83 -44 47z"/>
<path d="M2309 1514 c-31 -23 -39 -25 -101 -19 l-68 7 11 -30 c5 -16 21 -40
35 -53 13 -12 24 -31 24 -41 0 -13 10 -19 40 -24 23 -4 38 -9 35 -12 -11 -11
19 -32 46 -32 15 0 31 -4 34 -10 3 -5 20 -10 36 -10 18 0 28 -4 24 -10 -9 -15
-43 -12 -71 6 -34 23 -39 13 -13 -31 21 -34 25 -37 58 -31 20 3 50 1 66 -3 30
-9 30 -9 4 -10 -15 -1 -41 -4 -58 -7 -30 -6 -31 -8 -25 -43 10 -63 10 -63 50
-46 19 8 58 35 86 60 28 25 55 45 62 45 31 2 -75 33 -111 34 -43 0 -43 1 -16
14 17 9 47 13 86 10 l60 -4 -29 23 c-57 47 -96 62 -143 53 -66 -12 -35 6 49
29 41 11 67 20 58 20 -9 1 -51 19 -93 41 -86 45 -106 48 -142 20 -14 -11 -35
-20 -47 -19 -14 0 -16 2 -6 6 8 3 36 21 61 39 25 19 57 38 70 43 23 9 23 10
-7 10 -18 1 -44 -10 -65 -25z m147 -106 c4 -7 3 -8 -4 -4 -7 4 -38 2 -71 -5
-70 -13 -106 -6 -41 9 62 14 107 14 116 0z"/>
<path d="M1986 1517 c3 -10 9 -15 12 -12 3 3 0 11 -7 18 -10 9 -11 8 -5 -6z"/>
<path d="M2104 1498 c7 -34 22 -56 31 -46 7 7 -21 78 -31 78 -3 0 -4 -14 0
-32z"/>
<path d="M2014 1490 c-22 -8 -54 -47 -54 -63 0 -5 11 -7 24 -5 13 1 31 -4 40
-11 14 -11 76 -23 76 -14 0 1 -12 9 -27 17 -16 8 -22 15 -14 16 25 0 86 -41
103 -70 14 -25 23 -30 55 -29 31 1 34 2 14 8 -14 4 -32 20 -41 36 -9 17 -35
40 -58 53 -31 18 -42 30 -42 48 0 20 -5 24 -27 23 -16 0 -38 -4 -49 -9z"/>
<path d="M1935 1110 c-20 -22 -50 -25 -88 -11 -18 7 -25 6 -23 -2 4 -25 18
-37 45 -37 28 0 44 10 75 48 24 27 16 29 -9 2z"/>
<path d="M2047 1333 c-4 -3 -7 -11 -7 -17 0 -6 5 -5 12 2 6 6 9 14 7 17 -3 3
-9 2 -12 -2z"/>
<path d="M2560 550 c0 -18 67 -85 109 -108 47 -27 49 -25 21 20 -11 18 -20 40
-20 49 0 26 -34 49 -73 49 -20 0 -37 -4 -37 -10z"/>
<path d="M1746 534 c-3 -9 -6 -24 -6 -35 0 -10 -5 -19 -12 -19 -29 0 22 -32
53 -33 28 -2 35 2 37 20 8 52 -55 111 -72 67z m29 -74 c3 -6 -1 -7 -9 -4 -18
7 -21 14 -7 14 6 0 13 -4 16 -10z"/>
<path d="M3018 363 c-9 -2 -22 -19 -28 -36 -6 -18 -20 -43 -31 -57 l-20 -25
16 35 16 35 -40 -42 c-32 -33 -41 -50 -41 -78 0 -79 53 -139 134 -152 29 -4
35 -2 41 17 8 25 -2 89 -17 108 -17 20 -45 14 -66 -15 -19 -27 -21 -27 -39
-10 -11 9 -23 14 -28 10 -4 -5 -5 -2 -1 5 5 7 16 10 27 7 26 -9 49 11 49 41 0
13 4 24 9 24 5 0 11 8 14 18 3 9 15 41 26 70 21 53 20 56 -21 45z"/>
<path d="M1978 353 c12 -2 30 -2 40 0 9 3 -1 5 -23 4 -22 0 -30 -2 -17 -4z"/>
<path d="M2971 334 c0 -11 3 -14 6 -6 3 7 2 16 -1 19 -3 4 -6 -2 -5 -13z"/>
<path d="M3387 59 c7 -7 15 -10 18 -7 3 3 -2 9 -12 12 -14 6 -15 5 -6 -5z"/>
</g>
</svg>
