<?xml version="1.0" standalone="no"?>
<!DOCTYPE svg PUBLIC "-//W3C//DTD SVG 20010904//EN"
 "http://www.w3.org/TR/2001/REC-SVG-20010904/DTD/svg10.dtd">
<svg version="1.0" xmlns="http://www.w3.org/2000/svg"
 width="500.000000pt" height="500.000000pt" viewBox="0 0 500.000000 500.000000"
 preserveAspectRatio="xMidYMid meet">

<g transform="translate(0.000000,500.000000) scale(0.100000,-0.100000)"
fill="#000000" stroke="none">
<path d="M0 2500 l0 -2500 2500 0 2500 0 0 2500 0 2500 -2500 0 -2500 0 0
-2500z m2708 1989 c674 -73 1258 -479 1556 -1082 302 -613 265 -1335 -99
-1912 -145 -230 -406 -491 -611 -611 -24 -14 -44 -29 -44 -33 0 -5 9 -16 21
-27 18 -16 55 -74 47 -74 -8 0 -119 48 -125 54 -3 3 -10 6 -14 6 -4 0 5 -13
19 -29 15 -16 39 -43 53 -60 24 -28 32 -31 83 -31 73 0 113 20 124 62 8 31 2
109 -13 159 -15 53 16 -8 35 -70 23 -71 26 -183 7 -220 -20 -41 -62 -63 -129
-72 l-63 -8 67 3 c70 2 76 -4 26 -30 -22 -11 -43 -14 -79 -9 -44 6 -52 12 -85
56 -41 56 -61 69 -101 68 l-28 -1 31 -7 c43 -11 48 -15 83 -68 42 -63 41 -86
-1 -47 -48 44 -81 63 -127 70 -38 6 -44 12 -72 65 -17 32 -38 60 -46 63 -8 3
-50 -7 -94 -22 l-79 -27 6 -50 c10 -73 16 -81 82 -94 59 -11 60 -12 77 -59 10
-26 29 -69 42 -96 13 -26 20 -45 14 -41 -39 24 37 -103 79 -132 17 -12 22 -12
36 1 29 30 73 20 120 -28 71 -71 54 -111 -47 -111 -32 0 -63 5 -70 12 -8 8 1
9 35 6 54 -6 92 2 99 21 5 12 1 13 -27 1 -30 -13 -129 -15 -141 -3 -3 3 6 13
20 22 17 11 25 25 24 44 -1 21 -2 22 -6 7 -8 -33 -24 -45 -60 -45 -21 0 -36 6
-40 16 -3 8 -11 13 -19 10 -19 -7 -30 12 -59 99 -32 101 -43 120 -84 148 -34
23 -34 23 -85 5 -72 -25 -195 -24 -245 2 -54 27 -95 71 -115 123 -11 29 -24
47 -38 51 -28 7 -36 0 -10 -9 13 -3 26 -24 36 -52 9 -26 26 -57 38 -70 30 -32
14 -29 -43 8 -67 43 -126 109 -108 121 18 11 -24 2 -116 -25 -92 -28 -265 -29
-340 -3 -47 17 -121 64 -113 72 2 2 28 -3 58 -11 33 -9 94 -14 150 -13 l95 1
-90 7 c-49 4 -125 15 -168 24 -46 10 -93 14 -114 10 -35 -7 -35 -7 -29 -48 4
-22 21 -62 38 -87 31 -45 32 -46 66 -37 38 11 67 6 96 -15 19 -14 19 -16 3
-40 -21 -33 -77 -51 -132 -43 -41 7 -62 26 -49 47 3 5 -1 9 -8 9 -7 0 -24 26
-37 58 -13 31 -40 82 -59 114 -36 60 -35 84 6 107 12 8 -3 10 -59 11 l-76 0 8
-49 c4 -27 13 -60 20 -73 7 -13 14 -38 14 -56 2 -30 -1 -33 -24 -30 -22 3 -29
12 -43 56 -9 29 -28 66 -42 82 -33 40 -44 105 -20 131 9 10 24 19 33 19 9 0
-17 18 -58 41 -374 204 -674 528 -851 920 -124 275 -177 552 -167 874 6 205
30 342 92 531 168 510 537 931 1020 1164 162 77 402 149 570 169 50 6 101 13
115 15 56 8 267 5 358 -5z m-902 -3965 c23 -56 16 -79 -24 -77 -39 1 -68 21
-52 37 5 5 10 18 10 27 0 19 25 49 41 49 6 0 17 -16 25 -36z m1215 -248 c-17
-35 -31 -71 -31 -80 0 -21 -31 -36 -61 -30 -22 5 -21 3 5 -12 29 -16 30 -16
48 9 13 18 24 23 39 20 50 -13 64 -143 16 -143 -45 1 -111 45 -135 90 -30 57
-24 87 28 153 23 28 38 57 36 64 -3 7 -1 13 4 13 13 0 13 -12 0 -45 -6 -17 -6
-24 0 -20 5 3 13 20 18 38 6 21 16 33 33 37 36 9 36 -18 0 -94z"/>
<path d="M2316 4459 c-865 -91 -1558 -735 -1711 -1589 -23 -127 -30 -380 -16
-522 67 -646 440 -1202 1018 -1515 l72 -39 90 15 c50 8 91 20 91 26 0 6 9 28
20 50 11 21 19 40 17 41 -1 2 -38 18 -82 37 -416 179 -764 562 -909 998 -68
203 -80 287 -81 544 0 205 3 241 23 334 50 220 133 416 253 597 72 107 192
244 204 232 4 -4 -24 -45 -62 -90 -433 -510 -523 -1201 -235 -1799 172 -356
470 -643 834 -800 49 -22 90 -39 92 -39 2 0 8 17 14 39 7 21 28 58 47 82 20
25 35 55 35 70 0 23 7 30 51 45 27 10 55 24 61 31 13 16 -116 -31 -152 -55
-14 -9 -29 -15 -34 -14 -5 2 -19 -7 -31 -18 -20 -19 -27 -20 -64 -10 -51 14
-67 52 -31 77 27 19 70 108 70 146 0 51 90 105 110 66 8 -14 22 -19 57 -19 39
0 50 -5 77 -35 34 -36 69 -45 106 -25 15 8 23 4 45 -22 37 -44 73 -119 81
-168 6 -33 3 -47 -15 -71 -12 -16 -24 -43 -26 -61 l-5 -33 14 31 c24 51 77 88
192 134 104 41 113 48 194 129 75 75 94 102 155 219 37 72 70 130 72 128 7 -7
-47 -158 -72 -203 -13 -24 -22 -43 -20 -43 7 0 105 139 154 218 l51 82 -77 1
c-61 0 -73 3 -57 11 47 22 49 36 52 491 l3 427 -53 0 c-29 1 -89 8 -133 16
-44 8 -86 16 -94 17 -9 1 -39 -52 -82 -147 -38 -82 -87 -181 -109 -220 -47
-81 -47 -88 7 -186 75 -135 206 -226 342 -237 51 -4 68 -9 64 -19 -5 -13 -36
-11 -128 8 -123 25 -274 129 -347 237 -17 25 -33 48 -35 50 -1 2 -28 -19 -58
-48 -103 -97 -253 -146 -425 -139 -76 4 -107 10 -156 32 -104 47 -173 136
-190 246 -5 31 -19 58 -44 87 -53 60 -100 154 -107 213 l-6 50 -41 0 c-81 1
-155 55 -186 135 -17 43 -14 135 5 183 22 54 91 115 164 144 48 19 74 23 176
22 139 0 240 -24 428 -98 62 -25 130 -52 152 -60 36 -15 30 -7 -60 76 -299
275 -351 346 -349 469 3 183 159 283 361 230 92 -23 129 -27 160 -17 22 7 22
6 17 -86 -3 -51 -8 -104 -11 -118 -4 -22 -7 -19 -24 27 -25 64 -95 145 -152
172 -50 24 -132 28 -180 7 -49 -20 -95 -78 -102 -130 -16 -105 46 -192 254
-358 208 -166 341 -310 341 -367 0 -12 7 -21 15 -21 8 0 15 3 15 8 0 4 21 35
48 69 133 175 355 274 617 275 218 0 380 -57 500 -176 105 -105 145 -226 124
-373 -18 -128 -102 -247 -214 -302 l-49 -25 59 -13 c102 -23 187 -88 220 -167
24 -58 23 -160 -2 -216 -42 -95 -156 -165 -288 -177 l-62 -6 -69 -78 c-37 -44
-109 -116 -161 -161 -51 -45 -91 -84 -88 -86 8 -9 110 30 185 71 41 22 117 69
168 105 50 35 92 59 92 53 0 -41 -165 -167 -330 -252 l-85 -44 65 -3 c36 -2
106 1 157 7 50 6 109 11 130 11 34 -1 36 -2 20 -14 -25 -19 -179 -56 -260 -63
-37 -3 -70 -9 -72 -13 -5 -8 108 -44 188 -60 108 -22 49 -55 -83 -47 l-85 6
64 -26 64 -26 46 24 c95 50 257 175 355 273 334 336 515 817 477 1273 -31 371
-156 684 -380 950 -40 48 -57 75 -49 79 27 17 196 -217 282 -391 94 -190 143
-357 167 -565 16 -142 6 -387 -20 -512 -96 -447 -360 -832 -743 -1082 -88 -57
-281 -156 -307 -156 -7 0 -11 -6 -8 -14 6 -16 -20 -26 -72 -26 -18 0 -51 -5
-72 -12 -32 -9 -37 -14 -27 -25 10 -12 3 -13 -43 -8 l-54 6 30 -26 30 -27 -34
6 c-41 7 -37 -1 7 -13 40 -12 47 -3 21 25 l-21 22 42 -5 c27 -4 45 -2 49 6 12
19 70 -53 83 -105 13 -47 18 -50 67 -33 l32 11 -50 31 c-27 17 -54 42 -61 55
-11 25 -11 25 14 8 40 -25 81 -19 174 27 83 40 90 42 182 43 93 0 97 1 155 38
297 190 539 461 696 781 203 414 249 871 134 1324 -140 552 -527 1019 -1050
1267 -304 144 -676 208 -1009 173z m195 -215 c9 -11 10 -20 2 -33 -8 -13 -7
-22 3 -36 18 -24 18 -30 -2 -49 -9 -10 -33 -16 -60 -16 l-44 0 0 75 0 75 44 0
c27 0 48 -6 57 -16z m266 -16 c17 -19 17 -21 0 -50 -12 -21 -14 -34 -7 -48 13
-23 13 -40 1 -40 -5 0 -15 16 -21 35 -9 27 -17 35 -36 35 -20 0 -24 -5 -24
-30 0 -16 -5 -30 -11 -30 -9 0 -10 21 -6 70 3 39 8 74 11 78 9 14 74 0 93 -20z
m-578 -48 c6 -28 11 -58 11 -66 0 -11 9 -13 43 -8 28 5 39 3 32 -4 -5 -5 -29
-13 -51 -17 l-41 -6 -7 43 c-4 24 -9 58 -12 76 -10 53 13 37 25 -18z m767 8
c-3 -13 -11 -47 -17 -75 -14 -61 -35 -73 -25 -15 10 64 27 112 38 112 6 0 8
-9 4 -22z m-992 -79 l17 -61 42 7 c27 5 38 4 32 -3 -16 -15 -78 -33 -86 -25
-8 9 -39 111 -39 130 0 33 18 7 34 -48z m1249 0 c9 -12 17 -32 17 -46 0 -31
-42 -73 -73 -73 -32 0 -87 20 -87 31 0 5 12 38 26 74 l26 64 36 -14 c21 -9 45
-25 55 -36z m-1412 -75 c27 -60 32 -92 10 -68 -15 17 -59 122 -53 128 10 11
13 7 43 -60z m-196 -64 l-13 -49 44 -7 c24 -3 47 -11 50 -16 4 -7 -11 -8 -45
-3 -33 4 -51 3 -51 -3 0 -6 5 -14 10 -17 12 -7 14 -35 2 -35 -14 0 -84 122
-75 131 6 6 15 -1 23 -16 18 -34 27 -31 35 12 8 43 13 53 25 53 4 0 2 -22 -5
-50z m1865 15 c29 -30 20 -45 -9 -16 -40 40 -101 15 -101 -40 0 -27 30 -59 56
-59 21 0 25 32 7 46 -22 16 -1 19 28 4 19 -11 19 -12 2 -40 -9 -17 -23 -30
-31 -30 -28 0 -70 31 -80 57 -27 80 70 139 128 78z m230 -170 c23 -27 4 -27
-29 1 -31 26 -32 26 -46 8 -12 -17 -11 -22 6 -40 28 -30 23 -41 -6 -14 -24 22
-26 23 -42 7 -16 -16 -15 -19 12 -47 40 -41 26 -47 -19 -8 l-37 33 47 57 47
57 27 -19 c15 -10 33 -26 40 -35z m-2300 37 c0 -4 -10 -12 -22 -17 -13 -6 -24
-18 -26 -28 -3 -15 4 -17 55 -15 56 3 58 2 61 -23 2 -19 -4 -33 -24 -48 -27
-21 -54 -28 -54 -13 0 4 14 13 30 19 21 8 30 18 30 33 0 19 -4 22 -27 17 -16
-3 -35 -8 -44 -12 -18 -7 -49 19 -49 41 0 19 36 54 55 54 8 0 15 -3 15 -8z
m1537 -35 c133 -68 208 -194 201 -334 -3 -51 -6 -58 -28 -64 -25 -7 -25 -7 -2
-8 19 -1 22 -5 16 -23 -9 -32 -33 -78 -57 -111 l-20 -29 -52 52 -53 52 26 46
c20 35 25 57 23 98 -2 49 -1 53 26 63 l28 11 -30 -5 c-26 -5 -32 -2 -42 22 -7
15 -18 36 -25 45 -11 15 -6 25 37 70 l50 53 -56 -53 c-36 -34 -59 -50 -63 -43
-7 11 -72 48 -88 50 -5 1 -28 1 -53 1 -38 0 -47 4 -56 23 -9 21 -9 21 -5 -3 4
-21 -3 -29 -41 -53 l-46 -28 -49 48 c-26 26 -48 51 -48 55 0 13 109 79 136 82
13 2 27 6 32 10 4 5 48 6 97 4 73 -4 100 -9 142 -31z m-364 -125 l48 -49 -23
-39 c-15 -26 -25 -61 -28 -103 l-5 -65 -64 -19 c-34 -10 -65 -16 -68 -13 -9 9
-9 137 0 179 4 21 12 48 19 60 21 40 61 97 67 97 4 0 28 -22 54 -48z m-58
-292 c-11 -5 -27 -9 -35 -9 -9 0 -8 4 5 9 11 5 27 9 35 9 9 0 8 -4 -5 -9z m70
-98 l-39 -37 35 41 c19 22 36 39 39 37 2 -2 -13 -20 -35 -41z m-81 -15 c15
-21 32 -34 38 -31 7 5 8 2 3 -5 -9 -16 -42 13 -69 61 -22 38 -12 29 28 -25z
m525 -34 c16 -9 -100 -93 -128 -93 -9 1 0 8 19 16 19 8 49 26 68 41 l34 25
-42 44 c-42 41 -43 42 -69 27 l-26 -15 25 20 25 21 45 -42 c24 -23 46 -43 49
-44z m-389 74 c0 -2 -12 -14 -27 -28 l-28 -24 24 28 c23 25 31 32 31 24z m76
-45 c-5 -4 -66 26 -66 33 0 3 16 -3 35 -12 19 -9 33 -18 31 -21z m87 -9 c-13
-2 -33 -2 -45 0 -13 2 -3 4 22 4 25 0 35 -2 23 -4z m-228 -23 c-15 -17 -16
-22 -4 -37 12 -17 12 -17 -6 -1 -18 17 -18 18 0 38 10 11 20 20 23 20 3 0 -3
-9 -13 -20z m142 -2 c-3 -8 -6 -5 -6 6 -1 11 2 17 5 13 3 -3 4 -12 1 -19z m20
-10 c-3 -8 -6 -5 -6 6 -1 11 2 17 5 13 3 -3 4 -12 1 -19z m140 -20 c-3 -8 -6
-5 -6 6 -1 11 2 17 5 13 3 -3 4 -12 1 -19z m-170 -10 c-3 -8 -6 -5 -6 6 -1 11
2 17 5 13 3 -3 4 -12 1 -19z m162 -28 c0 -9 -4 -8 -9 5 -5 11 -9 27 -9 35 0 9
4 8 9 -5 5 -11 9 -27 9 -35z m-142 18 c-3 -8 -6 -5 -6 6 -1 11 2 17 5 13 3 -3
4 -12 1 -19z m-60 -32 c16 -5 23 -2 26 11 4 16 5 16 6 1 0 -9 -3 -20 -9 -23
-10 -6 -100 29 -100 40 0 3 12 -1 28 -8 15 -8 37 -17 49 -21z m121 -19 l67 -3
-72 -2 c-70 -2 -73 -1 -72 21 1 16 3 17 6 5 3 -14 18 -18 71 -21z m1479 -373
c-3 -3 -12 -4 -19 -1 -8 3 -5 6 6 6 11 1 17 -2 13 -5z m-3450 -740 c-3 -3 -12
-4 -19 -1 -8 3 -5 6 6 6 11 1 17 -2 13 -5z m1607 -72 c25 -37 54 -95 65 -128
20 -58 20 -58 21 -21 0 21 4 36 9 33 16 -10 53 -100 66 -161 7 -33 14 -48 14
-33 1 32 10 58 21 58 11 0 21 -62 30 -180 7 -90 7 -91 9 -30 6 164 39 109 49
-80 5 -120 6 -123 17 -80 12 43 13 44 19 18 12 -44 4 -60 -59 -111 -62 -50
-112 -80 -155 -91 -22 -6 -20 -2 14 29 22 19 34 35 28 35 -6 0 -34 -20 -62
-45 -42 -38 -119 -82 -125 -73 -1 2 -6 24 -12 50 -11 52 -6 57 67 58 33 1 34
2 10 11 -13 6 -41 7 -61 4 -33 -6 -37 -4 -62 34 -25 38 -26 41 -8 41 11 0 23
-4 26 -10 3 -5 21 -9 38 -9 27 2 28 2 7 6 -14 3 -29 9 -35 14 -5 5 -24 9 -43
9 -25 0 -35 5 -39 20 -4 15 -9 17 -23 10 -40 -21 -71 -11 -114 35 -24 25 -49
45 -56 45 -9 0 -8 -4 5 -13 16 -13 14 -14 -18 -13 -19 1 -44 9 -54 18 -12 11
-27 15 -41 11 -33 -8 -28 20 9 51 39 33 99 37 99 6 0 -13 18 -31 49 -52 28
-18 53 -43 56 -55 4 -16 12 -23 28 -22 17 1 18 2 5 6 -10 2 -18 13 -18 23 0
10 -11 27 -25 38 -25 20 -49 68 -40 82 3 4 34 5 69 3 55 -5 68 -3 92 16 16 13
41 21 63 21 l36 0 -40 -20 c-40 -19 -107 -70 -92 -70 4 0 19 7 32 16 34 22 78
13 169 -35 l72 -38 -78 -17 c-85 -18 -104 -29 -35 -20 49 7 85 -8 142 -57 19
-17 35 -28 35 -24 0 7 -51 52 -86 76 l-24 15 43 19 42 19 -35 6 c-32 6 -54 15
-88 38 -9 6 -9 20 4 63 35 116 17 255 -59 452 -14 37 -24 67 -21 67 2 0 24
-31 48 -68z m-434 -448 c0 -8 -4 -12 -10 -9 -5 3 -10 10 -10 16 0 5 5 9 10 9
6 0 10 -7 10 -16z m126 -20 c16 -39 14 -50 -11 -41 -9 4 -15 19 -15 42 0 45 7
44 26 -1z m-182 -389 c-28 -43 -85 -60 -112 -33 -22 22 -15 38 14 28 39 -15
62 -12 81 10 25 29 37 25 17 -5z"/>
<path d="M2432 4218 c2 -18 8 -22 28 -20 52 7 51 42 -1 42 -26 0 -30 -3 -27
-22z"/>
<path d="M2440 4156 c0 -22 4 -26 31 -26 26 0 30 3 27 23 -2 16 -11 23 -30 25
-24 3 -28 0 -28 -22z"/>
<path d="M2700 4206 c0 -22 4 -26 31 -26 26 0 30 3 27 23 -2 16 -11 23 -30 25
-24 3 -28 0 -28 -22z"/>
<path d="M3126 4087 c-20 -53 -20 -63 0 -71 40 -15 77 2 89 41 4 17 -1 29 -19
48 -35 35 -51 31 -70 -18z"/>
<path d="M2720 3828 c0 -7 6 -33 14 -58 13 -44 14 -45 56 -45 l44 0 13 50 c7
28 13 53 13 58 0 4 -31 7 -70 7 -49 0 -70 -4 -70 -12z"/>
<path d="M2871 3814 c0 -11 3 -14 6 -6 3 7 2 16 -1 19 -3 4 -6 -2 -5 -13z"/>
<path d="M2635 3804 c-16 -8 -41 -23 -55 -34 l-25 -19 41 -41 41 -41 37 22
c34 20 36 24 30 53 -10 45 -22 76 -31 76 -5 0 -21 -7 -38 -16z"/>
<path d="M2701 3810 c0 -8 4 -24 9 -35 5 -13 9 -14 9 -5 0 8 -4 24 -9 35 -5
13 -9 14 -9 5z"/>
<path d="M2861 3774 c0 -11 3 -14 6 -6 3 7 2 16 -1 19 -3 4 -6 -2 -5 -13z"/>
<path d="M2851 3734 c0 -11 3 -14 6 -6 3 7 2 16 -1 19 -3 4 -6 -2 -5 -13z"/>
<path d="M3068 3573 c7 -3 16 -2 19 1 4 3 -2 6 -13 5 -11 0 -14 -3 -6 -6z"/>
<path d="M3028 3433 c7 -3 16 -2 19 1 4 3 -2 6 -13 5 -11 0 -14 -3 -6 -6z"/>
<path d="M3068 3423 c7 -3 16 -2 19 1 4 3 -2 6 -13 5 -11 0 -14 -3 -6 -6z"/>
<path d="M2503 3687 c-22 -32 -46 -87 -41 -92 5 -4 111 -26 113 -23 1 2 10 18
20 37 l17 33 -38 39 c-21 22 -41 39 -44 39 -3 0 -15 -15 -27 -33z"/>
<path d="M2470 3570 c14 -4 34 -8 45 -8 16 0 15 2 -5 8 -14 4 -34 8 -45 8 -16
0 -15 -2 5 -8z"/>
<path d="M2449 3528 c-1 -46 2 -102 7 -107 2 -2 27 2 56 10 l53 14 0 43 c0 43
0 43 -49 57 -66 20 -66 20 -67 -17z"/>
<path d="M2522 1745 c0 -16 2 -22 5 -12 2 9 2 23 0 30 -3 6 -5 -1 -5 -18z"/>
<path d="M2350 1410 c-50 -11 1 -11 60 -1 41 8 42 8 10 8 -19 0 -51 -3 -70 -7z"/>
<path d="M2450 1269 c-12 -8 -8 -10 15 -6 17 3 41 -1 55 -8 14 -8 32 -14 40
-14 10 0 8 3 -5 9 -18 8 -18 9 -2 9 10 1 15 6 12 11 -8 13 -96 13 -115 -1z"/>
<path d="M2968 3080 c-134 -23 -268 -90 -358 -180 -59 -59 -129 -164 -117
-176 5 -6 175 -64 186 -64 3 0 29 34 56 76 131 200 353 310 498 246 93 -41
137 -168 87 -249 -25 -41 -90 -89 -152 -111 l-48 -17 0 -183 0 -184 128 3
c113 4 131 7 165 28 119 74 198 282 170 446 -40 233 -226 377 -483 374 -47 -1
-106 -5 -132 -9z"/>
<path d="M1434 3006 c-58 -14 -128 -52 -161 -88 -71 -75 -69 -236 3 -300 28
-24 88 -48 122 -48 29 0 30 1 41 75 11 74 33 131 74 189 30 43 123 98 207 122
l75 22 -40 10 c-120 32 -236 39 -321 18z"/>
<path d="M3045 2962 c-74 -25 -138 -66 -199 -126 -59 -57 -140 -176 -128 -188
10 -10 177 -38 229 -38 37 0 44 3 39 16 -3 9 -6 22 -6 31 0 8 -14 28 -31 44
l-31 29 137 0 137 0 -31 -29 c-30 -28 -41 -61 -22 -61 19 0 67 22 104 47 92
64 102 160 24 241 -51 53 -131 66 -222 34z"/>
<path d="M1763 2939 c-203 -80 -298 -355 -196 -568 l26 -54 22 62 c41 111 131
201 239 237 62 21 176 24 230 5 80 -28 165 -133 166 -204 0 -65 -58 -127 -121
-127 -79 0 -126 88 -78 143 36 41 78 45 118 11 68 -57 63 21 -7 98 -46 51
-112 72 -211 66 -91 -5 -148 -29 -219 -93 -53 -47 -101 -132 -109 -192 -5 -37
-2 -41 42 -76 78 -60 143 -80 265 -81 86 0 115 4 161 22 149 59 228 199 217
384 -4 68 -11 91 -44 156 -37 73 -43 79 -102 108 -99 49 -274 116 -312 120
-20 2 -57 -5 -87 -17z"/>
<path d="M2366 2713 c-3 -16 -8 -46 -11 -68 l-6 -40 19 50 c11 28 23 58 27 68
5 12 2 17 -8 17 -9 0 -18 -12 -21 -27z"/>
<path d="M2454 2638 c-23 -78 -25 -262 -5 -362 13 -64 15 -68 28 -50 34 45
201 400 192 407 -6 5 -183 67 -190 67 -4 0 -15 -28 -25 -62z"/>
<path d="M2296 2268 c-90 -91 -202 -132 -356 -132 -113 1 -187 17 -272 60
l-48 24 0 -27 c0 -44 43 -125 87 -164 83 -75 237 -105 389 -76 101 19 191 64
260 128 l52 50 -29 67 c-16 37 -29 75 -29 84 0 30 -14 27 -54 -14z"/>
<path d="M3120 1990 c0 -126 2 -230 4 -230 3 0 35 56 71 125 37 69 68 125 70
125 9 0 -49 -165 -94 -262 l-30 -68 108 0 108 0 32 41 c40 49 52 44 20 -7 -20
-32 -20 -37 -5 -31 10 4 23 7 30 7 31 0 104 62 132 112 26 48 29 61 29 148 -1
77 -5 103 -22 135 -53 100 -141 135 -343 135 l-110 0 0 -230z"/>
<path d="M3085 1573 c-26 -49 -68 -119 -93 -158 -24 -38 -36 -63 -26 -54 11 9
41 28 67 43 54 31 201 152 262 215 l39 41 -101 0 -101 0 -47 -87z"/>
<path d="M1968 1363 c12 -2 30 -2 40 0 9 3 -1 5 -23 4 -22 0 -30 -2 -17 -4z"/>
<path d="M2058 1337 c-3 -19 -2 -25 4 -19 6 6 8 18 6 28 -3 14 -5 12 -10 -9z"/>
<path d="M2030 1325 c-7 -9 -8 -15 -2 -15 5 0 12 7 16 15 3 8 4 15 2 15 -2 0
-9 -7 -16 -15z"/>
<path d="M2066 1305 c-11 -8 -15 -15 -9 -15 6 0 16 7 23 15 16 19 11 19 -14 0z"/>
<path d="M2990 1242 c21 -17 21 -19 5 -35 -10 -10 -33 -17 -58 -17 l-42 0 24
-19 c15 -11 22 -24 18 -34 -7 -18 -65 -32 -103 -24 l-25 4 21 -22 c19 -21 20
-24 5 -39 -11 -11 -34 -16 -72 -16 l-56 0 22 -24 c13 -14 20 -29 16 -35 -3 -6
-37 -11 -77 -11 -68 0 -70 -1 -55 -18 28 -30 20 -35 -45 -29 -68 6 -61 -7 9
-19 30 -4 44 -2 57 11 13 14 14 20 5 32 -11 12 -5 13 38 7 56 -7 93 6 93 34 0
10 -5 23 -12 30 -9 9 -3 12 28 12 51 0 79 19 71 49 -4 18 -1 21 28 21 18 0 43
9 56 19 21 17 22 22 11 40 -11 19 -10 21 9 21 31 0 59 18 59 38 0 22 -19 42
-38 42 -9 0 -6 -6 8 -18z"/>
<path d="M2773 1160 c-29 -27 -93 -69 -143 -94 -108 -54 -156 -89 -176 -127
-22 -44 -16 -45 14 -3 20 27 58 55 128 93 120 66 187 113 215 152 11 16 19 29
17 29 -2 -1 -27 -23 -55 -50z"/>
<path d="M2211 1174 c0 -11 3 -14 6 -6 3 7 2 16 -1 19 -3 4 -6 -2 -5 -13z"/>
<path d="M1876 1161 c-3 -5 5 -8 19 -8 14 0 22 3 19 8 -3 5 -11 9 -19 9 -8 0
-16 -4 -19 -9z"/>
<path d="M1886 1142 c-3 -5 1 -9 9 -9 8 0 12 4 9 9 -3 4 -7 8 -9 8 -2 0 -6 -4
-9 -8z"/>
<path d="M2223 1095 c0 -33 2 -45 4 -27 2 18 2 45 0 60 -2 15 -4 0 -4 -33z"/>
<path d="M3060 1024 c95 -40 106 -42 140 -24 l33 17 -63 1 c-34 1 -76 3 -94 6
-17 3 -24 3 -16 0z"/>
<path d="M2086 950 c-27 -11 -54 -25 -60 -31 -12 -14 -13 -14 79 25 70 30 54
34 -19 6z"/>
<path d="M3010 950 c14 -4 34 -8 45 -8 16 0 15 2 -5 8 -14 4 -34 8 -45 8 -16
0 -15 -2 5 -8z"/>
<path d="M2844 905 c11 -8 31 -15 45 -15 32 0 25 5 -24 19 -36 9 -38 9 -21 -4z"/>
<path d="M2091 847 c-1 -10 6 -31 14 -46 8 -16 11 -31 8 -35 -4 -3 2 -6 11 -6
17 0 17 1 1 27 -10 14 -21 38 -25 52 -6 17 -9 20 -9 8z"/>
<path d="M1882 833 c-1 -7 -17 -17 -34 -22 l-33 -9 31 -1 c28 -1 33 -5 38 -36
4 -20 4 -40 0 -47 -10 -16 122 -3 150 16 12 7 31 16 41 19 20 5 19 5 0 5 -11
1 -31 -5 -45 -13 -14 -8 -35 -14 -47 -15 -18 0 -23 6 -24 28 l-1 27 -7 -30
c-14 -65 -55 -30 -64 55 -2 19 -5 30 -5 23z"/>
<path d="M2767 829 c7 -7 15 -10 18 -7 3 3 -2 9 -12 12 -14 6 -15 5 -6 -5z"/>
<path d="M3328 833 c12 -2 32 -2 45 0 12 2 2 4 -23 4 -25 0 -35 -2 -22 -4z"/>
<path d="M2665 800 c5 -8 10 -21 11 -30 1 -8 4 -28 8 -45 l7 -30 -29 33 -30
33 -4 -35 c-2 -19 0 -32 4 -30 4 3 8 13 8 22 1 15 2 15 13 2 7 -8 21 -22 31
-30 18 -14 19 -13 14 20 -4 19 -10 44 -14 55 -6 15 1 12 29 -12 41 -36 67 -42
67 -16 0 13 3 14 12 5 16 -16 38 -15 38 1 0 6 -11 26 -25 42 l-25 30 22 -39
c24 -42 19 -42 -39 1 l-33 24 21 -36 c28 -47 12 -44 -47 8 -26 23 -44 35 -39
27z"/>
<path d="M3227 786 c-58 -36 -57 -41 2 -12 29 15 60 25 68 22 8 -3 11 -1 8 4
-10 16 -37 11 -78 -14z"/>
<path d="M2436 792 c-2 -4 11 -6 29 -4 29 3 41 -3 83 -42 27 -25 52 -46 56
-46 4 0 -17 22 -46 50 -40 37 -61 49 -85 50 -17 0 -34 -4 -37 -8z"/>
<path d="M2344 743 c-3 -21 -10 -56 -14 -78 -10 -44 -6 -56 8 -28 10 19 25
143 17 143 -2 0 -7 -17 -11 -37z"/>
<path d="M2023 693 c15 -2 37 -2 50 0 12 2 0 4 -28 4 -27 0 -38 -2 -22 -4z"/>
<path d="M3450 642 c51 -66 70 -86 41 -41 -17 25 -38 52 -48 60 -10 8 -7 0 7
-19z"/>
<path d="M2588 573 c7 -3 16 -2 19 1 4 3 -2 6 -13 5 -11 0 -14 -3 -6 -6z"/>
<path d="M2711 571 c-2 -25 40 -86 77 -112 48 -34 95 -49 146 -48 l41 1 -44 9
c-88 17 -188 85 -211 143 -5 11 -9 15 -9 7z"/>
<path d="M2025 375 c-16 -8 -23 -14 -14 -15 8 0 24 7 35 15 23 18 18 18 -21 0z"/>
<path d="M1958 373 c7 -3 16 -2 19 1 4 3 -2 6 -13 5 -11 0 -14 -3 -6 -6z"/>
</g>
</svg>
