<?xml version="1.0" standalone="no"?>
<!DOCTYPE svg PUBLIC "-//W3C//DTD SVG 20010904//EN"
 "http://www.w3.org/TR/2001/REC-SVG-20010904/DTD/svg10.dtd">
<svg version="1.0" xmlns="http://www.w3.org/2000/svg"
 width="512.000000pt" height="512.000000pt" viewBox="0 0 512.000000 512.000000"
 preserveAspectRatio="xMidYMid meet">

<g transform="translate(0.000000,512.000000) scale(0.100000,-0.100000)"
fill="#000000" stroke="none">
<path d="M1760 5114 c-331 -41 -579 -122 -818 -266 -493 -296 -823 -783 -919
-1358 -21 -128 -24 -435 -5 -555 50 -307 145 -556 309 -803 445 -669 1254
-986 2048 -800 254 59 534 198 750 371 l70 57 875 -874 c767 -766 880 -875
912 -881 79 -15 148 54 133 133 -6 32 -115 145 -881 912 l-874 875 57 70 c278
346 423 760 423 1206 0 515 -194 983 -560 1350 -293 294 -644 474 -1060 544
-92 16 -389 28 -460 19z m445 -248 c362 -66 665 -224 917 -478 257 -259 413
-570 474 -943 23 -134 20 -382 -5 -527 -37 -214 -142 -484 -252 -645 -272
-401 -672 -663 -1137 -744 -149 -26 -392 -28 -537 -4 -549 89 -1011 428 -1259
923 -109 219 -162 431 -173 692 -23 607 282 1175 809 1502 189 117 420 200
649 232 126 18 395 14 514 -8z"/>
</g>
</svg>
