<?xml version="1.0" standalone="no"?>
<!DOCTYPE svg PUBLIC "-//W3C//DTD SVG 20010904//EN"
 "http://www.w3.org/TR/2001/REC-SVG-20010904/DTD/svg10.dtd">
<svg version="1.0" xmlns="http://www.w3.org/2000/svg"
 width="512.000000pt" height="512.000000pt" viewBox="0 0 512.000000 512.000000"
 preserveAspectRatio="xMidYMid meet">

<g transform="translate(0.000000,512.000000) scale(0.100000,-0.100000)"
fill="#000000" stroke="none">
<path d="M90 4948 c-50 -26 -90 -89 -90 -143 1 -47 34 -110 71 -133 19 -11
185 -79 369 -152 184 -72 338 -134 342 -138 3 -4 113 -590 243 -1302 131 -712
243 -1309 250 -1327 8 -17 32 -46 56 -62 36 -27 51 -31 106 -31 34 0 63 -3 63
-6 0 -3 -40 -118 -90 -256 -93 -257 -103 -304 -76 -357 24 -46 62 -64 152 -70
l82 -6 -39 -65 c-53 -86 -72 -157 -73 -260 -1 -225 151 -416 379 -475 157 -40
325 8 451 130 98 96 147 213 147 350 -1 111 -30 203 -89 282 -13 17 -24 34
-24 37 0 3 239 6 531 6 l531 0 -24 -32 c-146 -192 -125 -469 48 -642 86 -86
228 -146 345 -146 210 1 408 150 470 354 43 142 13 313 -78 434 l-24 32 88 0
c64 0 97 5 122 18 100 50 105 181 10 237 -33 20 -54 20 -1361 23 -731 1 -1328
4 -1328 6 0 6 118 331 134 369 l15 37 1256 0 c1239 0 1256 0 1295 20 26 13 47
34 60 60 29 57 710 2185 710 2218 0 51 -41 115 -90 140 -44 22 -66 24 -1660
92 l-1615 69 -45 -22 c-60 -29 -90 -76 -90 -139 0 -27 7 -62 15 -77 20 -40 70
-79 108 -86 18 -3 695 -35 1505 -70 811 -35 1476 -65 1478 -68 3 -3 -125 -409
-283 -903 l-288 -899 -1297 -3 -1296 -2 -5 22 c-3 13 -110 590 -237 1283 -146
794 -237 1271 -248 1289 -9 16 -29 38 -43 48 -37 28 -807 330 -854 335 -29 3
-53 -2 -85 -19z m1938 -4104 c147 -61 178 -257 57 -362 -47 -42 -77 -53 -141
-53 -64 0 -110 18 -153 62 -44 44 -61 86 -61 154 0 154 157 258 298 199z
m1844 -20 c50 -34 98 -119 98 -172 0 -123 -95 -223 -214 -224 -183 -2 -285
192 -181 342 63 91 206 118 297 54z"/>
</g>
</svg>
